<?xml version="1.0" encoding="UTF-8" standalone="no"?>
<!-- Created with Inkscape (http://www.inkscape.org/) -->

<svg
   width="50.441269mm"
   height="22.334137mm"
   viewBox="0 0 50.441269 22.334137"
   version="1.1"
   id="svg5"
   xml:space="preserve"
   xmlns:inkscape="http://www.inkscape.org/namespaces/inkscape"
   xmlns:sodipodi="http://sodipodi.sourceforge.net/DTD/sodipodi-0.dtd"
   xmlns="http://www.w3.org/2000/svg"
   xmlns:svg="http://www.w3.org/2000/svg"><sodipodi:namedview
     id="namedview7"
     pagecolor="#ffffff"
     bordercolor="#000000"
     borderopacity="0.25"
     inkscape:showpageshadow="2"
     inkscape:pageopacity="0.0"
     inkscape:pagecheckerboard="0"
     inkscape:deskcolor="#d1d1d1"
     inkscape:document-units="mm"
     showgrid="false" /><defs
     id="defs2" /><g
     inkscape:label="Layer 1"
     inkscape:groupmode="layer"
     id="layer1"
     transform="translate(-150.62683,-145.42244)"><path
       d="m 160.73821,145.42247 c -0.312,-1e-4 -1.98637,1.82852 -2.56677,2.80293 -0.61947,1.04001 -1.1814,2.76084 -1.37459,4.21008 -0.24481,1.83659 0.0424,4.00746 0.84026,6.34483 0.22101,0.64747 0.37295,1.20629 0.33745,1.24179 -0.22601,0.226 -1.59125,-1.05619 -2.28927,-2.15026 -1.64321,-2.57558 -2.20498,-4.82743 -1.92701,-7.72408 0.15301,-1.59448 0.10304,-1.83993 -0.36174,-1.77353 -0.30341,0.0434 -0.57417,0.62525 -0.77153,1.65675 -0.40473,2.11534 0.0325,4.86518 1.11311,7.00164 1.33781,2.64493 3.09137,4.38032 7.42591,7.34838 0.54247,0.37146 1.12633,0.73759 1.29759,0.81339 0.52693,0.23324 0.28387,0.35406 -0.7829,0.39016 -4.43153,0.14985 -8.3666,-2.51053 -9.76168,-6.59908 -0.42998,-1.26019 -0.62306,-1.50519 -1.03559,-1.31723 -0.27846,0.12688 -0.28731,0.15708 -0.21911,0.7369 0.14798,1.25909 1.16924,3.40821 2.31045,4.86224 1.07365,1.36794 3.28341,2.70496 5.36298,3.24528 1.58442,0.41165 2.64878,0.51874 4.91392,0.49454 1.82778,-0.0195 2.27575,0.0132 3.78891,0.27389 0.94377,0.16258 2.23763,0.33298 2.87528,0.37878 2.03002,0.14577 3.56021,0.12625 4.35839,-0.0553 0.79883,-0.18169 0.9083,-0.25983 1.02009,-0.7276 0.10404,-0.43538 -0.071,-0.67141 -0.66042,-0.88936 -2.22212,-0.82161 -3.86088,-2.80329 -4.32532,-5.23068 -0.20052,-1.04809 -0.19303,-2.82438 0.0155,-3.72432 0.0899,-0.3879 0.19143,-0.90761 0.22583,-1.15497 0.0559,-0.40139 0.0356,-0.45817 -0.1881,-0.52917 -0.75441,-0.23945 -1.51526,2.32351 -1.35341,4.55941 0.1787,2.46864 1.22162,4.50443 2.97346,5.80482 0.36177,0.26855 0.65998,0.53176 0.66198,0.58446 0.002,0.0532 -0.47132,0.0724 -1.05317,0.0439 -1.23615,-0.0604 -1.52897,-0.1829 -2.97656,-1.2454 -1.23998,-0.91012 -2.05828,-1.83115 -2.58537,-2.90938 -0.62812,-1.28493 -0.78922,-2.03508 -0.80202,-3.74293 -0.0118,-1.5749 0.13641,-2.28554 0.77721,-3.72742 0.29286,-0.65896 0.26123,-0.95248 -0.11058,-1.02578 -0.42723,-0.0842 -1.25742,1.25968 -1.60714,2.6014 -0.45426,1.74277 -0.38216,3.44992 0.22169,5.23637 0.59494,1.76004 1.26076,2.69643 2.74247,3.85919 l 0.62218,0.48835 -0.38809,0.0341 c -1.40801,0.12421 -4.33893,-1.43095 -5.75107,-3.05149 -0.21792,-0.25009 -0.51252,-0.70305 -0.65422,-1.00666 -0.25215,-0.54022 -0.25664,-0.60743 -0.22324,-3.14657 0.0384,-2.9177 0.14069,-3.55579 0.82372,-5.14439 0.78878,-1.83457 1.35785,-2.6505 2.97915,-4.26899 1.40653,-1.40414 1.49716,-1.51914 1.38596,-1.7632 -0.0844,-0.18528 -0.20723,-0.26097 -0.42272,-0.26097 -0.36218,0 -0.55056,0.12265 -1.7849,1.16324 -2.14724,1.81018 -3.56964,4.42474 -4.05712,7.45742 -0.19112,1.18895 -0.17047,1.77033 0.13178,3.74861 l 0.0579,0.37982 -0.48576,-0.49764 c -0.40343,-0.41353 -0.5403,-0.67063 -0.80874,-1.51929 -0.56179,-1.77608 -0.70439,-2.76458 -0.64699,-4.48189 0.0923,-2.7644 0.78764,-4.44238 2.84996,-6.87814 0.26716,-0.31553 0.48576,-0.62059 0.48576,-0.67799 0,-0.17447 -0.42153,-0.53893 -0.62374,-0.53899 z m 29.47417,0.0274 c -0.18966,-0.003 -0.3189,0.11594 -0.38034,0.3607 -0.071,0.28276 -0.0987,0.24058 1.18649,1.80971 1.0321,1.26013 1.81529,2.98455 2.14406,4.72219 0.21009,1.11039 0.0723,3.65272 -0.26665,4.92425 -0.15367,0.57651 -0.35038,1.21148 -0.43718,1.41077 -0.0868,0.19929 -0.24684,0.59753 -0.35554,0.8847 -0.13364,0.35309 -0.35555,0.65029 -0.68574,0.91829 -0.53267,0.43236 -0.55458,0.45952 -1.03095,1.29036 -0.57483,1.00258 -0.99568,1.52127 -1.71876,2.1177 -1.30774,1.07868 -2.82661,1.79512 -4.45244,2.10013 -0.30475,0.0572 -0.39326,0.0387 -0.39326,-0.0832 0,-0.0865 0.55081,-0.70217 1.22422,-1.36788 0.67341,-0.66571 1.37987,-1.46703 1.56941,-1.78077 0.80163,-1.32696 1.19737,-4.02835 0.85525,-5.83737 -0.40809,-2.15776 -1.39405,-3.70692 -1.98386,-3.11712 -0.14263,0.14263 -0.10848,0.31619 0.29765,1.50585 0.42122,1.23395 0.46347,1.45661 0.50747,2.70113 0.0589,1.6664 -0.0999,2.43167 -0.78032,3.76876 -1.37942,2.71076 -3.97551,4.69429 -6.14381,4.69429 -0.61741,0 -0.56981,-0.29758 0.14108,-0.88315 2.00785,-1.65388 2.7706,-3.1988 2.87579,-5.826 0.0642,-1.60425 -0.0956,-2.74066 -0.51625,-3.67006 -0.33638,-0.74328 -0.61843,-0.97767 -0.91518,-0.76068 -0.17507,0.12804 -0.17279,0.2044 0.0393,1.30328 0.46242,2.39624 0.24945,4.32716 -0.66404,6.02134 -0.73271,1.35891 -1.41156,2.14549 -2.66237,3.08457 -0.74251,0.55745 -1.06917,0.87402 -1.12707,1.09243 -0.16103,0.60802 -0.0269,0.68816 1.40405,0.83768 2.02184,0.21125 5.68379,-0.14798 8.04861,-0.78962 0.73299,-0.19887 0.91641,-0.20888 1.84485,-0.10077 2.0618,0.24009 2.40789,0.25296 3.33881,0.1261 4.3157,-0.58812 7.65697,-2.87362 9.20512,-6.29678 0.53917,-1.19224 0.81744,-2.38095 0.62787,-2.68149 -0.37428,-0.59334 -0.67747,-0.40646 -0.96945,0.5979 -0.0948,0.32599 -0.28436,0.77052 -0.42168,0.98805 -0.13732,0.21753 -0.37704,0.6466 -0.53226,0.95292 -0.50472,0.99601 -1.93285,2.56012 -2.9099,3.18688 -1.68918,1.08356 -3.09504,1.63487 -4.81211,1.88671 -0.94818,0.13907 -2.01511,0.0987 -2.31459,-0.0879 -0.10126,-0.0631 0.23953,-0.34 1.13946,-0.92604 2.62114,-1.70693 5.15766,-3.93914 6.48385,-5.70508 1.74402,-2.32232 2.66647,-5.55962 2.35179,-8.25325 -0.15416,-1.31952 -0.46334,-2.03784 -0.89917,-2.08824 -0.46546,-0.0538 -0.55322,0.24341 -0.40359,1.36322 0.14678,1.09851 0.0719,2.87117 -0.16847,3.98736 -0.16422,0.7625 -1.1037,2.77127 -1.85208,3.96048 -0.58321,0.92673 -1.65077,2.06137 -1.93942,2.06137 -0.13528,0 -0.27401,-0.028 -0.30851,-0.0625 -0.0345,-0.0345 0.078,-0.36443 0.25012,-0.73277 0.7318,-1.56617 1.10436,-4.09294 0.87798,-5.95674 -0.33777,-2.78076 -1.20494,-4.72976 -2.94711,-6.62492 -0.6206,-0.67511 -1.105,-1.02144 -1.4211,-1.02681 z m -4.97541,1.71514 c -0.078,0.007 -0.12909,0.0703 -0.23202,0.19741 -0.35796,0.44205 -0.3324,0.48894 0.7431,1.34772 2.22065,1.77314 3.70918,3.86903 4.37028,6.15259 0.19482,0.67287 0.24412,1.18009 0.28422,2.92954 0.0267,1.1637 0.072,2.22749 0.10077,2.3642 0.0641,0.30448 0.14388,0.26066 0.524,-0.28784 0.45353,-0.65445 0.64417,-1.5211 0.63717,-2.89026 -0.007,-1.34359 -0.20025,-2.22447 -0.82837,-3.7822 -0.93621,-2.32175 -3.28094,-4.97368 -5.20744,-5.88957 -0.20884,-0.0993 -0.31368,-0.14856 -0.39171,-0.14159 z"
       style="fill:#000000;stroke-width:0.108503"
       id="path588"
       inkscape:export-filename=".\logoHorns.svg"
       inkscape:export-xdpi="96"
       inkscape:export-ydpi="96" /></g></svg>
